<?xml version="1.0" encoding="UTF-8"?>
<svg xmlns="http://www.w3.org/2000/svg" xmlns:xlink="http://www.w3.org/1999/xlink" width="674px" height="550px" viewBox="0 0 674 550" version="1.1">
<defs>
<filter id="alpha" filterUnits="objectBoundingBox" x="0%" y="0%" width="100%" height="100%">
  <feColorMatrix type="matrix" in="SourceGraphic" values="0 0 0 0 1 0 0 0 0 1 0 0 0 0 1 0 0 0 1 0"/>
</filter>
<mask id="mask0">
  <g filter="url(#alpha)">
<rect x="0" y="0" width="674" height="550" style="fill:rgb(0%,0%,0%);fill-opacity:0.101961;stroke:none;"/>
  </g>
</mask>
<clipPath id="clip1">
  <rect x="0" y="0" width="674" height="550"/>
</clipPath>
<g id="surface5" clip-path="url(#clip1)">
<path style=" stroke:none;fill-rule:nonzero;fill:rgb(42.352941%,38.823529%,100%);fill-opacity:1;" d="M 644.332031 512.394531 C 630.507812 498.570312 614.6875 491.980469 608.992188 497.675781 C 603.296875 503.367188 609.886719 519.191406 623.710938 533.015625 C 637.535156 546.839844 653.359375 553.429688 659.054688 547.738281 C 664.75 542.042969 658.160156 526.21875 644.332031 512.394531 Z M 644.332031 512.394531 "/>
</g>
<mask id="mask1">
  <g filter="url(#alpha)">
<rect x="0" y="0" width="674" height="550" style="fill:rgb(0%,0%,0%);fill-opacity:0.101961;stroke:none;"/>
  </g>
</mask>
<clipPath id="clip2">
  <rect x="0" y="0" width="674" height="550"/>
</clipPath>
<g id="surface8" clip-path="url(#clip2)">
<path style=" stroke:none;fill-rule:nonzero;fill:rgb(0%,0%,0%);fill-opacity:1;" d="M 598.867188 377.09375 C 598.855469 385.503906 601.679688 393.671875 606.890625 400.273438 C 594.800781 415.644531 596.554688 437.726562 610.921875 450.996094 C 625.285156 464.265625 647.4375 464.265625 661.800781 450.996094 C 676.167969 437.726562 677.921875 415.644531 665.832031 400.273438 C 670.855469 393.898438 598.867188 372.882812 598.867188 377.09375 Z M 598.867188 377.09375 "/>
</g>
<mask id="mask2">
  <g filter="url(#alpha)">
<rect x="0" y="0" width="674" height="550" style="fill:rgb(0%,0%,0%);fill-opacity:0.101961;stroke:none;"/>
  </g>
</mask>
<clipPath id="clip3">
  <rect x="0" y="0" width="674" height="550"/>
</clipPath>
<g id="surface11" clip-path="url(#clip3)">
<path style=" stroke:none;fill-rule:nonzero;fill:rgb(0%,0%,0%);fill-opacity:1;" d="M 439.828125 500.398438 L 223.46875 544.535156 L 228.292969 0 L 423.78125 40.847656 L 431.214844 39.28125 Z M 439.828125 500.398438 "/>
</g>
<mask id="mask3">
  <g filter="url(#alpha)">
<rect x="0" y="0" width="674" height="550" style="fill:rgb(0%,0%,0%);fill-opacity:0.301961;stroke:none;"/>
  </g>
</mask>
<clipPath id="clip4">
  <rect x="0" y="0" width="674" height="550"/>
</clipPath>
<g id="surface14" clip-path="url(#clip4)">
<path style="fill:none;stroke-width:3;stroke-linecap:butt;stroke-linejoin:miter;stroke:rgb(26.666667%,25.098039%,32.54902%);stroke-opacity:1;stroke-miterlimit:10;" d="M 573.349754 138.001278 L 573.467568 347.498679 L 660.467429 347.498679 L 660.467429 261.500909 L 809.469283 261.500909 L 826.969932 239.057628 " transform="matrix(0.729437,0,0,0.729443,0,0)"/>
<path style="fill:none;stroke-width:3;stroke-linecap:butt;stroke-linejoin:miter;stroke:rgb(26.666667%,25.098039%,32.54902%);stroke-opacity:1;stroke-miterlimit:10;" d="M 88.970558 204.50108 L 412.470164 204.50108 L 432.471671 195.499134 L 440.472274 195.499134 L 440.472274 397.499375 L 580.472111 397.499375 L 586.469886 415.497912 L 586.469886 506.497358 L 694.472668 506.497358 L 694.472668 618.997585 " transform="matrix(0.729437,0,0,0.729443,0,0)"/>
<path style="fill:none;stroke-width:3;stroke-linecap:butt;stroke-linejoin:miter;stroke:rgb(26.666667%,25.098039%,32.54902%);stroke-opacity:1;stroke-miterlimit:10;" d="M 483.201062 618.997585 L 483.201062 397.499375 " transform="matrix(0.729437,0,0,0.729443,0,0)"/>
<path style="fill:none;stroke-width:3;stroke-linecap:butt;stroke-linejoin:miter;stroke:rgb(26.666667%,25.098039%,32.54902%);stroke-opacity:1;stroke-miterlimit:10;" d="M 826.969932 559.657571 L 483.201062 559.657571 " transform="matrix(0.729437,0,0,0.729443,0,0)"/>
<path style="fill:none;stroke-width:3;stroke-linecap:butt;stroke-linejoin:miter;stroke:rgb(26.666667%,25.098039%,32.54902%);stroke-opacity:1;stroke-miterlimit:10;" d="M 740.869738 138.001278 L 740.869738 618.997585 " transform="matrix(0.729437,0,0,0.729443,0,0)"/>
<path style="fill:none;stroke-width:3;stroke-linecap:butt;stroke-linejoin:miter;stroke:rgb(26.666667%,25.098039%,32.54902%);stroke-opacity:1;stroke-miterlimit:10;" d="M 87.969144 517.137969 L 826.969932 517.137969 " transform="matrix(0.729437,0,0,0.729443,0,0)"/>
<path style="fill:none;stroke-width:3;stroke-linecap:butt;stroke-linejoin:miter;stroke:rgb(26.666667%,25.098039%,32.54902%);stroke-opacity:1;stroke-miterlimit:10;" d="M 177.908986 618.997585 L 177.908986 138.001278 " transform="matrix(0.729437,0,0,0.729443,0,0)"/>
<path style="fill:none;stroke-width:3;stroke-linecap:butt;stroke-linejoin:miter;stroke:rgb(26.666667%,25.098039%,32.54902%);stroke-opacity:1;stroke-miterlimit:10;" d="M 349.691673 138.001278 L 349.691673 618.997585 " transform="matrix(0.729437,0,0,0.729443,0,0)"/>
<path style="fill:none;stroke-width:3;stroke-linecap:butt;stroke-linejoin:miter;stroke:rgb(26.666667%,25.098039%,32.54902%);stroke-opacity:1;stroke-miterlimit:10;" d="M 88.970558 259.498097 L 660.467429 261.500909 " transform="matrix(0.729437,0,0,0.729443,0,0)"/>
<path style="fill:none;stroke-width:3;stroke-linecap:butt;stroke-linejoin:miter;stroke:rgb(26.666667%,25.098039%,32.54902%);stroke-opacity:1;stroke-miterlimit:10;" d="M 255.301697 138.868807 L 255.301697 618.997585 " transform="matrix(0.729437,0,0,0.729443,0,0)"/>
<path style="fill:none;stroke-width:3;stroke-linecap:butt;stroke-linejoin:miter;stroke:rgb(26.666667%,25.098039%,32.54902%);stroke-opacity:1;stroke-miterlimit:10;" d="M 87.969144 370.820199 L 349.691673 370.820199 L 483.201062 517.137969 " transform="matrix(0.729437,0,0,0.729443,0,0)"/>
<path style="fill:none;stroke-width:3;stroke-linecap:butt;stroke-linejoin:miter;stroke:rgb(26.666667%,25.098039%,32.54902%);stroke-opacity:1;stroke-miterlimit:10;" d="M 512.118903 138.001278 L 512.118903 397.499375 " transform="matrix(0.729437,0,0,0.729443,0,0)"/>
<path style="fill:none;stroke-width:3;stroke-linecap:butt;stroke-linejoin:miter;stroke:rgb(26.666667%,25.098039%,32.54902%);stroke-opacity:1;stroke-miterlimit:10;" d="M 483.201062 443.981761 L 826.969932 443.981761 " transform="matrix(0.729437,0,0,0.729443,0,0)"/>
</g>
<mask id="mask4">
  <g filter="url(#alpha)">
<rect x="0" y="0" width="674" height="550" style="fill:rgb(0%,0%,0%);fill-opacity:0.101961;stroke:none;"/>
  </g>
</mask>
<clipPath id="clip5">
  <rect x="0" y="0" width="674" height="550"/>
</clipPath>
<g id="surface17" clip-path="url(#clip5)">
<path style=" stroke:none;fill-rule:nonzero;fill:rgb(0%,0%,0%);fill-opacity:1;" d="M 390.957031 156.101562 C 368.6875 156.101562 350.632812 174.152344 350.632812 196.425781 C 350.632812 218.695312 390.957031 291.046875 390.957031 291.046875 C 390.957031 291.046875 431.28125 218.722656 431.28125 196.425781 C 431.28125 174.152344 413.226562 156.101562 390.957031 156.101562 Z M 390.957031 213.625 C 381.160156 213.625 373.214844 205.683594 373.214844 195.882812 C 373.214844 186.085938 381.160156 178.144531 390.957031 178.144531 C 400.753906 178.144531 408.695312 186.085938 408.695312 195.882812 C 408.691406 205.679688 400.75 213.617188 390.957031 213.617188 Z M 390.957031 213.625 "/>
</g>
<mask id="mask5">
  <g filter="url(#alpha)">
<rect x="0" y="0" width="674" height="550" style="fill:rgb(0%,0%,0%);fill-opacity:0.101961;stroke:none;"/>
  </g>
</mask>
<clipPath id="clip6">
  <rect x="0" y="0" width="674" height="550"/>
</clipPath>
<g id="surface20" clip-path="url(#clip6)">
<path style=" stroke:none;fill-rule:nonzero;fill:rgb(42.352941%,38.823529%,100%);fill-opacity:1;" d="M 395.722656 525.335938 C 393.527344 520.238281 381.714844 520.425781 369.335938 525.753906 C 356.960938 531.085938 348.707031 539.539062 350.902344 544.636719 C 353.097656 549.738281 364.914062 549.550781 377.289062 544.21875 C 389.664062 538.890625 397.917969 530.433594 395.722656 525.335938 Z M 395.722656 525.335938 "/>
</g>
<mask id="mask6">
  <g filter="url(#alpha)">
<rect x="0" y="0" width="674" height="550" style="fill:rgb(0%,0%,0%);fill-opacity:0.101961;stroke:none;"/>
  </g>
</mask>
<clipPath id="clip7">
  <rect x="0" y="0" width="674" height="550"/>
</clipPath>
<g id="surface23" clip-path="url(#clip7)">
<path style=" stroke:none;fill-rule:nonzero;fill:rgb(0%,0%,0%);fill-opacity:1;" d="M 398.980469 436.097656 C 398.992188 441.894531 397.042969 447.527344 393.449219 452.078125 C 401.785156 462.675781 400.578125 477.894531 390.675781 487.042969 C 380.773438 496.191406 365.503906 496.191406 355.601562 487.042969 C 345.703125 477.894531 344.492188 462.675781 352.828125 452.078125 C 349.363281 447.703125 398.980469 433.222656 398.980469 436.097656 Z M 398.980469 436.097656 "/>
</g>
<mask id="mask7">
  <g filter="url(#alpha)">
<rect x="0" y="0" width="674" height="550" style="fill:rgb(0%,0%,0%);fill-opacity:0.101961;stroke:none;"/>
  </g>
</mask>
<clipPath id="clip8">
  <rect x="0" y="0" width="674" height="550"/>
</clipPath>
<g id="surface26" clip-path="url(#clip8)">
<path style=" stroke:none;fill-rule:nonzero;fill:rgb(42.352941%,38.823529%,100%);fill-opacity:1;" d="M 45.464844 496.347656 C 31.640625 482.519531 15.816406 475.929688 10.125 481.625 C 4.429688 487.320312 11.019531 503.144531 24.84375 516.96875 C 38.667969 530.792969 54.492188 537.382812 60.1875 531.6875 C 65.878906 525.992188 59.289062 510.171875 45.464844 496.347656 Z M 45.464844 496.347656 "/>
</g>
<mask id="mask8">
  <g filter="url(#alpha)">
<rect x="0" y="0" width="674" height="550" style="fill:rgb(0%,0%,0%);fill-opacity:0.101961;stroke:none;"/>
  </g>
</mask>
<clipPath id="clip9">
  <rect x="0" y="0" width="674" height="550"/>
</clipPath>
<g id="surface29" clip-path="url(#clip9)">
<path style=" stroke:none;fill-rule:nonzero;fill:rgb(0%,0%,0%);fill-opacity:1;" d="M 0 361.046875 C -0.015625 369.457031 2.8125 377.625 8.023438 384.226562 C -4.066406 399.597656 -2.3125 421.679688 12.054688 434.949219 C 26.417969 448.21875 48.570312 448.21875 62.933594 434.949219 C 77.296875 421.679688 79.050781 399.597656 66.960938 384.226562 C 71.988281 377.851562 0 356.835938 0 361.046875 Z M 0 361.046875 "/>
</g>
</defs>
<g id="surface1">
<use xlink:href="#surface5" mask="url(#mask0)"/>
<path style=" stroke:none;fill-rule:nonzero;fill:rgb(24.705882%,23.921569%,33.72549%);fill-opacity:1;" d="M 644.355469 514.769531 C 644.355469 509.109375 640.851562 504.519531 636.527344 504.519531 C 632.207031 504.519531 628.703125 509.109375 628.703125 514.769531 C 628.703125 520.429688 632.207031 525.015625 636.527344 525.015625 C 640.851562 525.015625 644.355469 520.429688 644.355469 514.769531 Z M 644.355469 514.769531 "/>
<path style=" stroke:none;fill-rule:nonzero;fill:rgb(24.705882%,23.921569%,33.72549%);fill-opacity:1;" d="M 644.355469 502.242188 C 644.355469 496.582031 640.851562 491.996094 636.527344 491.996094 C 632.207031 491.996094 628.703125 496.582031 628.703125 502.242188 C 628.703125 507.902344 632.207031 512.492188 636.527344 512.492188 C 640.851562 512.492188 644.355469 507.902344 644.355469 502.242188 Z M 644.355469 502.242188 "/>
<path style=" stroke:none;fill-rule:nonzero;fill:rgb(24.705882%,23.921569%,33.72549%);fill-opacity:1;" d="M 644.355469 489.71875 C 644.355469 484.058594 640.851562 479.46875 636.527344 479.46875 C 632.207031 479.46875 628.703125 484.058594 628.703125 489.71875 C 628.703125 495.378906 632.207031 499.96875 636.527344 499.96875 C 640.851562 499.96875 644.355469 495.378906 644.355469 489.71875 Z M 644.355469 489.71875 "/>
<path style=" stroke:none;fill-rule:nonzero;fill:rgb(24.705882%,23.921569%,33.72549%);fill-opacity:1;" d="M 644.355469 477.195312 C 644.355469 471.535156 640.851562 466.945312 636.527344 466.945312 C 632.207031 466.945312 628.703125 471.535156 628.703125 477.195312 C 628.703125 482.855469 632.207031 487.441406 636.527344 487.441406 C 640.851562 487.441406 644.355469 482.855469 644.355469 477.195312 Z M 644.355469 477.195312 "/>
<path style=" stroke:none;fill-rule:nonzero;fill:rgb(24.705882%,23.921569%,33.72549%);fill-opacity:1;" d="M 644.355469 464.667969 C 644.355469 459.007812 640.851562 454.421875 636.527344 454.421875 C 632.207031 454.421875 628.703125 459.007812 628.703125 464.667969 C 628.703125 470.328125 632.207031 474.917969 636.527344 474.917969 C 640.851562 474.917969 644.355469 470.328125 644.355469 464.667969 Z M 644.355469 464.667969 "/>
<path style=" stroke:none;fill-rule:nonzero;fill:rgb(24.705882%,23.921569%,33.72549%);fill-opacity:1;" d="M 644.355469 452.144531 C 644.355469 446.484375 640.851562 441.898438 636.527344 441.898438 C 632.207031 441.898438 628.703125 446.484375 628.703125 452.144531 C 628.703125 457.804688 632.207031 462.394531 636.527344 462.394531 C 640.851562 462.394531 644.355469 457.804688 644.355469 452.144531 Z M 644.355469 452.144531 "/>
<path style=" stroke:none;fill-rule:nonzero;fill:rgb(24.705882%,23.921569%,33.72549%);fill-opacity:1;" d="M 644.355469 439.621094 C 644.355469 433.960938 640.851562 429.371094 636.527344 429.371094 C 632.207031 429.371094 628.703125 433.960938 628.703125 439.621094 C 628.703125 445.28125 632.207031 449.871094 636.527344 449.871094 C 640.851562 449.871094 644.355469 445.28125 644.355469 439.621094 Z M 644.355469 439.621094 "/>
<path style=" stroke:none;fill-rule:nonzero;fill:rgb(42.352941%,38.823529%,100%);fill-opacity:1;" d="M 665.832031 353.910156 C 666.902344 352.550781 667.875 351.117188 668.75 349.621094 L 648.179688 346.246094 L 670.425781 346.40625 C 674.738281 337.023438 675.003906 326.277344 671.15625 316.695312 L 641.3125 332.179688 L 668.820312 311.945312 C 661.796875 299.789062 648.570312 292.574219 634.546875 293.246094 C 620.523438 293.921875 608.050781 302.375 602.226562 315.148438 C 596.402344 327.921875 598.203125 342.882812 606.890625 353.910156 C 605.222656 356.027344 603.792969 358.320312 602.617188 360.746094 L 629.316406 374.605469 L 600.867188 365.050781 C 596.808594 377.054688 599.082031 390.296875 606.914062 400.261719 C 594.824219 415.628906 596.578125 437.710938 610.941406 450.980469 C 625.308594 464.25 647.457031 464.25 661.824219 450.980469 C 676.1875 437.710938 677.941406 415.628906 665.851562 400.261719 C 676.550781 386.65625 676.550781 367.5 665.851562 353.898438 Z M 665.832031 353.910156 "/>
<use xlink:href="#surface8" mask="url(#mask1)"/>
<path style=" stroke:none;fill-rule:nonzero;fill:rgb(26.666667%,25.098039%,32.54902%);fill-opacity:1;" d="M 617.8125 0 L 617.8125 525.199219 L 439.828125 500.398438 L 223.46875 544.535156 L 221.726562 544.894531 L 49.578125 497.480469 L 49.578125 40.847656 L 228.292969 0 L 423.78125 40.847656 L 431.214844 39.28125 Z M 617.8125 0 "/>
<path style=" stroke:none;fill-rule:nonzero;fill:rgb(100%,100%,100%);fill-opacity:1;" d="M 587.90625 28.683594 L 587.90625 498.597656 L 428.660156 476.40625 L 235.074219 515.898438 L 233.515625 516.210938 L 79.488281 473.796875 L 79.488281 65.226562 L 239.394531 28.683594 L 414.296875 65.226562 L 420.949219 63.828125 Z M 587.90625 28.683594 "/>
<use xlink:href="#surface11" mask="url(#mask2)"/>
<use xlink:href="#surface14" mask="url(#mask3)"/>
<path style=" stroke:none;fill-rule:nonzero;fill:rgb(42.352941%,38.823529%,100%);fill-opacity:1;" d="M 427.429688 322.414062 L 353.753906 322.414062 L 353.753906 290.316406 L 423.417969 289.953125 L 427.792969 302.355469 Z M 427.429688 322.414062 "/>
<path style=" stroke:none;fill-rule:nonzero;fill:rgb(42.352941%,38.823529%,100%);fill-opacity:1;" d="M 390.957031 156.101562 C 368.6875 156.101562 350.632812 174.152344 350.632812 196.425781 C 350.632812 218.695312 390.957031 291.046875 390.957031 291.046875 C 390.957031 291.046875 431.28125 218.722656 431.28125 196.425781 C 431.28125 174.152344 413.226562 156.101562 390.957031 156.101562 Z M 390.957031 213.625 C 381.160156 213.625 373.214844 205.683594 373.214844 195.882812 C 373.214844 186.085938 381.160156 178.144531 390.957031 178.144531 C 400.753906 178.144531 408.695312 186.085938 408.695312 195.882812 C 408.691406 205.679688 400.75 213.617188 390.957031 213.617188 Z M 390.957031 213.625 "/>
<use xlink:href="#surface17" mask="url(#mask4)"/>
<path style=" stroke:none;fill-rule:nonzero;fill:rgb(42.352941%,38.823529%,100%);fill-opacity:1;" d="M 390.957031 161.9375 C 368.6875 161.9375 350.632812 179.988281 350.632812 202.261719 C 350.632812 224.53125 390.957031 296.882812 390.957031 296.882812 C 390.957031 296.882812 431.28125 224.558594 431.28125 202.261719 C 431.28125 179.988281 413.226562 161.9375 390.957031 161.9375 Z M 390.957031 219.460938 C 381.160156 219.460938 373.214844 211.519531 373.214844 201.71875 C 373.214844 191.921875 381.160156 183.980469 390.957031 183.980469 C 400.753906 183.980469 408.695312 191.921875 408.695312 201.71875 C 408.691406 211.515625 400.75 219.453125 390.957031 219.453125 Z M 390.957031 219.460938 "/>
<use xlink:href="#surface20" mask="url(#mask5)"/>
<path style=" stroke:none;fill-rule:nonzero;fill:rgb(24.705882%,23.921569%,33.72549%);fill-opacity:1;" d="M 378.425781 531.011719 C 378.425781 527.113281 376.007812 523.953125 373.027344 523.953125 C 370.046875 523.953125 367.628906 527.113281 367.628906 531.011719 C 367.628906 534.914062 370.046875 538.074219 373.027344 538.074219 C 376.007812 538.074219 378.425781 534.914062 378.425781 531.011719 Z M 378.425781 531.011719 "/>
<path style=" stroke:none;fill-rule:nonzero;fill:rgb(24.705882%,23.921569%,33.72549%);fill-opacity:1;" d="M 378.425781 522.375 C 378.425781 518.476562 376.007812 515.316406 373.027344 515.316406 C 370.046875 515.316406 367.628906 518.476562 367.628906 522.375 C 367.628906 526.277344 370.046875 529.4375 373.027344 529.4375 C 376.007812 529.4375 378.425781 526.277344 378.425781 522.375 Z M 378.425781 522.375 "/>
<path style=" stroke:none;fill-rule:nonzero;fill:rgb(24.705882%,23.921569%,33.72549%);fill-opacity:1;" d="M 378.425781 513.746094 C 378.425781 509.847656 376.007812 506.6875 373.027344 506.6875 C 370.046875 506.6875 367.628906 509.847656 367.628906 513.746094 C 367.628906 517.644531 370.046875 520.808594 373.027344 520.808594 C 376.007812 520.808594 378.425781 517.644531 378.425781 513.746094 Z M 378.425781 513.746094 "/>
<path style=" stroke:none;fill-rule:nonzero;fill:rgb(24.705882%,23.921569%,33.72549%);fill-opacity:1;" d="M 378.425781 505.117188 C 378.425781 501.21875 376.007812 498.054688 373.027344 498.054688 C 370.046875 498.054688 367.628906 501.21875 367.628906 505.117188 C 367.628906 509.015625 370.046875 512.179688 373.027344 512.179688 C 376.007812 512.179688 378.425781 509.015625 378.425781 505.117188 Z M 378.425781 505.117188 "/>
<path style=" stroke:none;fill-rule:nonzero;fill:rgb(24.705882%,23.921569%,33.72549%);fill-opacity:1;" d="M 378.425781 496.480469 C 378.425781 492.582031 376.007812 489.417969 373.027344 489.417969 C 370.046875 489.417969 367.628906 492.582031 367.628906 496.480469 C 367.628906 500.378906 370.046875 503.542969 373.027344 503.542969 C 376.007812 503.542969 378.425781 500.378906 378.425781 496.480469 Z M 378.425781 496.480469 "/>
<path style=" stroke:none;fill-rule:nonzero;fill:rgb(24.705882%,23.921569%,33.72549%);fill-opacity:1;" d="M 378.425781 487.851562 C 378.425781 483.953125 376.007812 480.789062 373.027344 480.789062 C 370.046875 480.789062 367.628906 483.953125 367.628906 487.851562 C 367.628906 491.75 370.046875 494.914062 373.027344 494.914062 C 376.007812 494.914062 378.425781 491.75 378.425781 487.851562 Z M 378.425781 487.851562 "/>
<path style=" stroke:none;fill-rule:nonzero;fill:rgb(24.705882%,23.921569%,33.72549%);fill-opacity:1;" d="M 378.425781 479.222656 C 378.425781 475.324219 376.007812 472.160156 373.027344 472.160156 C 370.046875 472.160156 367.628906 475.324219 367.628906 479.222656 C 367.628906 483.121094 370.046875 486.28125 373.027344 486.28125 C 376.007812 486.28125 378.425781 483.121094 378.425781 479.222656 Z M 378.425781 479.222656 "/>
<path style=" stroke:none;fill-rule:nonzero;fill:rgb(42.352941%,38.823529%,100%);fill-opacity:1;" d="M 352.828125 420.144531 C 352.09375 419.21875 351.421875 418.242188 350.816406 417.226562 L 364.996094 414.890625 L 349.675781 415.007812 C 346.707031 408.542969 346.53125 401.136719 349.179688 394.535156 L 369.75 405.167969 L 350.785156 391.222656 C 355.628906 382.847656 364.742188 377.875 374.40625 378.339844 C 384.070312 378.808594 392.664062 384.632812 396.675781 393.433594 C 400.691406 402.238281 399.449219 412.542969 393.464844 420.144531 C 394.605469 421.605469 395.582031 423.1875 396.382812 424.855469 L 377.996094 434.417969 L 397.617188 427.855469 C 400.414062 436.128906 398.847656 445.257812 393.449219 452.125 C 401.785156 462.71875 400.578125 477.941406 390.675781 487.085938 C 380.773438 496.234375 365.503906 496.234375 355.601562 487.085938 C 345.703125 477.941406 344.492188 462.71875 352.828125 452.125 C 345.457031 442.746094 345.457031 429.542969 352.828125 420.167969 Z M 352.828125 420.144531 "/>
<use xlink:href="#surface23" mask="url(#mask6)"/>
<use xlink:href="#surface26" mask="url(#mask7)"/>
<path style=" stroke:none;fill-rule:nonzero;fill:rgb(24.705882%,23.921569%,33.72549%);fill-opacity:1;" d="M 45.488281 498.71875 C 45.488281 493.058594 41.984375 488.472656 37.660156 488.472656 C 33.339844 488.472656 29.832031 493.058594 29.832031 498.71875 C 29.832031 504.378906 33.339844 508.96875 37.660156 508.96875 C 41.984375 508.96875 45.488281 504.378906 45.488281 498.71875 Z M 45.488281 498.71875 "/>
<path style=" stroke:none;fill-rule:nonzero;fill:rgb(24.705882%,23.921569%,33.72549%);fill-opacity:1;" d="M 45.488281 486.195312 C 45.488281 480.535156 41.984375 475.945312 37.660156 475.945312 C 33.339844 475.945312 29.832031 480.535156 29.832031 486.195312 C 29.832031 491.855469 33.339844 496.445312 37.660156 496.445312 C 41.984375 496.445312 45.488281 491.855469 45.488281 486.195312 Z M 45.488281 486.195312 "/>
<path style=" stroke:none;fill-rule:nonzero;fill:rgb(24.705882%,23.921569%,33.72549%);fill-opacity:1;" d="M 45.488281 473.671875 C 45.488281 468.011719 41.984375 463.421875 37.660156 463.421875 C 33.339844 463.421875 29.832031 468.011719 29.832031 473.671875 C 29.832031 479.332031 33.339844 483.917969 37.660156 483.917969 C 41.984375 483.917969 45.488281 479.332031 45.488281 473.671875 Z M 45.488281 473.671875 "/>
<path style=" stroke:none;fill-rule:nonzero;fill:rgb(24.705882%,23.921569%,33.72549%);fill-opacity:1;" d="M 45.488281 461.148438 C 45.488281 455.488281 41.984375 450.898438 37.660156 450.898438 C 33.339844 450.898438 29.832031 455.488281 29.832031 461.148438 C 29.832031 466.808594 33.339844 471.394531 37.660156 471.394531 C 41.984375 471.394531 45.488281 466.808594 45.488281 461.148438 Z M 45.488281 461.148438 "/>
<path style=" stroke:none;fill-rule:nonzero;fill:rgb(24.705882%,23.921569%,33.72549%);fill-opacity:1;" d="M 45.488281 448.621094 C 45.488281 442.960938 41.984375 438.375 37.660156 438.375 C 33.339844 438.375 29.832031 442.960938 29.832031 448.621094 C 29.832031 454.28125 33.339844 458.871094 37.660156 458.871094 C 41.984375 458.871094 45.488281 454.28125 45.488281 448.621094 Z M 45.488281 448.621094 "/>
<path style=" stroke:none;fill-rule:nonzero;fill:rgb(24.705882%,23.921569%,33.72549%);fill-opacity:1;" d="M 45.488281 436.097656 C 45.488281 430.4375 41.984375 425.847656 37.660156 425.847656 C 33.339844 425.847656 29.832031 430.4375 29.832031 436.097656 C 29.832031 441.757812 33.339844 446.347656 37.660156 446.347656 C 41.984375 446.347656 45.488281 441.757812 45.488281 436.097656 Z M 45.488281 436.097656 "/>
<path style=" stroke:none;fill-rule:nonzero;fill:rgb(24.705882%,23.921569%,33.72549%);fill-opacity:1;" d="M 45.488281 423.574219 C 45.488281 417.914062 41.984375 413.324219 37.660156 413.324219 C 33.339844 413.324219 29.832031 417.914062 29.832031 423.574219 C 29.832031 429.234375 33.339844 433.820312 37.660156 433.820312 C 41.984375 433.820312 45.488281 429.234375 45.488281 423.574219 Z M 45.488281 423.574219 "/>
<path style=" stroke:none;fill-rule:nonzero;fill:rgb(42.352941%,38.823529%,100%);fill-opacity:1;" d="M 66.960938 337.863281 C 68.035156 336.503906 69.007812 335.070312 69.878906 333.574219 L 49.308594 330.195312 L 71.558594 330.359375 C 75.871094 320.972656 76.136719 310.230469 72.289062 300.648438 L 42.445312 316.132812 L 69.953125 295.898438 C 62.929688 283.742188 49.703125 276.527344 35.679688 277.199219 C 21.65625 277.875 9.183594 286.324219 3.359375 299.101562 C -2.464844 311.875 -0.664062 326.835938 8.023438 337.863281 C 6.355469 339.980469 4.921875 342.273438 3.75 344.699219 L 30.445312 358.558594 L 2 349.003906 C -2.058594 361.007812 0.214844 374.25 8.046875 384.210938 C -4.042969 399.582031 -2.289062 421.664062 12.074219 434.933594 C 26.441406 448.203125 48.589844 448.203125 62.957031 434.933594 C 77.320312 421.664062 79.074219 399.582031 66.984375 384.210938 C 77.683594 370.609375 77.683594 351.453125 66.984375 337.847656 Z M 66.960938 337.863281 "/>
<use xlink:href="#surface29" mask="url(#mask8)"/>
</g>
</svg>
